#!OML:ASF E:\Style4\Style4.ASF
:FULLY-SPECIFIED
:DEGREES
3768
root -0.23709 16.9014 -1.15842 1.52611 14.3084 2.56798
lowerback 17.9488 5.55221 1.06671
upperback 10.1576 7.51461 0.966031
thorax 0.906263 3.83029 -0.823264
lowerneck 3.10443 -7.43307 -6.67967
upperneck -3.58494 -9.95287 8.28097
head -0.879872 -5.05366 3.9783
rclavicle 3.4191e-014 -1.51076e-014
rhumerus -2.7708 13.2469 -85.6246
rradius 112.354
rwrist 26.4272
rhand 25.2955 -4.48153
rfingers 7.12502
rthumb 49.4324 -25.9973
lclavicle 3.4191e-014 -1.51076e-014
lhumerus 19.0889 -23.5402 79.183
lradius 126.749
lwrist -16.3866
lhand 17.4455 38.3377
lfingers 7.12502
lthumb 42.1484 62.8779
rfemur -25.3087 -13.4281 16.9531
rtibia 53.1883
rfoot -26.6039 -20.4911
rtoes -11.5947
lfemur -28.538 -7.31271 -19.8766
ltibia 49.8813
lfoot -21.0805 4.2585
ltoes -20.1591
3769
root -0.236805 16.9182 -1.15542 1.4738 14.321 2.42736
lowerback 17.6173 5.42536 0.913275
upperback 10.3482 7.32829 1.17547
thorax 1.22871 3.72852 -0.446339
lowerneck 3.03659 -7.30081 -6.92173
upperneck -3.69656 -9.78065 8.25012
head -0.907939 -4.96304 4.01459
rclavicle -5.24792e-014 -2.38542e-014
rhumerus -2.83638 13.7634 -85.6131
rradius 112.454
rwrist 26.0827
rhand 24.9908 -4.63916
rfingers 7.12502
rthumb 49.1527 -26.2957
lclavicle -5.24792e-014 -2.38542e-014
lhumerus 18.9493 -23.1377 80.024
lradius 126.305
lwrist -17.3717
lhand 17.8393 38.9143
lfingers 7.12502
lthumb 42.5172 63.3287
rfemur -25.0913 -13.3708 17.0983
rtibia 52.8868
rfoot -26.5577 -20.4873
rtoes -11.3297
lfemur -28.4034 -7.38482 -19.7343
ltibia 49.7112
lfoot -20.9865 4.45168
ltoes -20.8991
3770
root -0.233047 16.9368 -1.15351 1.5102 14.2623 2.33592
lowerback 17.6097 5.24377 0.983106
upperback 10.2672 7.09982 1.10287
thorax 1.15952 3.61741 -0.528407
lowerneck 2.93865 -7.14497 -6.91144
upperneck -3.58619 -9.57079 8.24296
head -0.873144 -4.85598 4.00358
rclavicle -6.2816e-014 3.81667e-014
rhumerus -3.20335 14.1841 -86.0586
rradius 112.57
rwrist 26.0907
rhand 24.8053 -4.54894
rfingers 7.12502
rthumb 48.9823 -26.2901
lclavicle -6.2816e-014 3.81667e-014
lhumerus 18.4802 -22.8307 80.4531
lradius 126.146
lwrist -18.1611
lhand 18.4222 39.4518
lfingers 7.12502
lthumb 43.0625 63.6756
rfemur -24.9773 -13.3147 17.2045
rtibia 52.5842
rfoot -26.3162 -20.4724
rtoes -11.3076
lfemur -28.3094 -7.43497 -19.6486
ltibia 49.5026
lfoot -20.9308 4.63823
ltoes -21.34
3771
root -0.231059 16.9557 -1.15257 1.58831 14.1619 2.24485
lowerback 17.4428 5.10991 0.909241
upperback 10.2491 6.91304 1.13104
thorax 1.20948 3.51916 -0.41506
lowerneck 2.85464 -7.02087 -6.88068
upperneck -3.60076 -9.40309 8.08117
head -0.886624 -4.76802 3.94012
rclavicle -1.19271e-014 2.06736e-014
rhumerus -3.41732 14.6557 -86.2292
rradius 112.726
rwrist 26.1289
rhand 24.7393 -4.40626
rfingers 7.12502
rthumb 48.9217 -26.1773
lclavicle -1.19271e-014 2.06736e-014
lhumerus 18.058 -22.6556 80.9332
lradius 126.12
lwrist -18.9336
lhand 19.0891 39.9938
lfingers 7.12502
lthumb 43.6856 63.9929
rfemur -24.9224 -13.2592 17.3382
rtibia 52.2889
rfoot -26.053 -20.2936
rtoes -11.0813
lfemur -28.26 -7.46258 -19.5312
ltibia 49.2579
lfoot -20.8724 4.59111
ltoes -20.6519
3772
root -0.229403 16.9726 -1.15263 1.66004 14.0363 2.15779
lowerback 17.3766 5.02643 0.819627
upperback 10.1938 6.79024 1.18292
thorax 1.16471 3.45051 -0.290893
lowerneck 2.79227 -6.91754 -6.89349
upperneck -3.60486 -9.26614 7.93667
head -0.894764 -4.69558 3.89115
rclavicle -2.22639e-014 -1.74931e-014
rhumerus -3.67153 15.0441 -86.3511
rradius 112.914
rwrist 26.0743
rhand 24.6454 -4.36788
rfingers 7.12502
rthumb 48.8354 -26.1813
lclavicle -2.22639e-014 -1.74931e-014
lhumerus 17.6022 -22.7278 81.4596
lradius 126.209
lwrist -19.5342
lhand 19.7546 40.6305
lfingers 7.12502
lthumb 44.3064 64.3982
rfemur -24.8631 -13.1502 17.4652
rtibia 51.9796
rfoot -25.7925 -20.3007
rtoes -11.2356
lfemur -28.2059 -7.45388 -19.416
ltibia 48.9968
lfoot -20.7636 4.54927
ltoes -20.0607
3773
root -0.227145 16.9917 -1.15033 1.75823 13.8377 2.09723
lowerback 17.267 4.95008 0.749654
upperback 10.1432 6.67835 1.16671
thorax 1.15876 3.39047 -0.245329
lowerneck 2.65878 -6.78254 -6.95012
upperneck -3.49674 -9.08563 7.90266
head -0.849815 -4.6015 3.88148
rclavicle 1.29608e-013 -8.74653e-015
rhumerus -3.93359 15.4226 -86.5708
rradius 113.113
rwrist 26.0468
rhand 24.5214 -4.4083
rfingers 7.12502
rthumb 48.7214 -26.2774
lclavicle 1.29608e-013 -8.74653e-015
lhumerus 17.1193 -22.7675 81.8299
lradius 126.411
lwrist -19.7294
lhand 20.3322 41.3103
lfingers 7.12502
lthumb 44.8444 64.8709
rfemur -24.8303 -12.9795 17.5508
rtibia 51.6113
rfoot -25.557 -20.4858
rtoes -11.6161
lfemur -28.1303 -7.37792 -19.3404
ltibia 48.7227
lfoot -20.6988 4.67285
ltoes -20.1473
